<svg width="16" height="13" viewBox="0 0 16 13" fill="none" xmlns="http://www.w3.org/2000/svg">
<path d="M3.73178 12.1697C2.90614 12.1697 2.20339 11.8797 1.62355 11.2999C1.04371 10.7201 0.753784 10.0173 0.753784 9.19167V3.38693C0.753784 2.56129 1.04371 1.85854 1.62355 1.2787C2.20339 0.698857 2.90614 0.408936 3.73178 0.408936H12.524C13.3496 0.408936 14.0524 0.698857 14.6322 1.2787C15.212 1.85854 15.502 2.56129 15.502 3.38693V9.19167C15.502 10.0173 15.212 10.7201 14.6322 11.2999C14.0524 11.8797 13.3496 12.1697 12.524 12.1697H3.73178ZM3.69397 3.4342H12.5712C12.8486 3.4342 13.1148 3.46887 13.3701 3.5382C13.6254 3.60753 13.8633 3.71152 14.0839 3.85018V3.38693C14.0839 2.95835 13.931 2.59123 13.6254 2.28555C13.3197 1.97987 12.9525 1.82703 12.524 1.82703H3.73178C3.3032 1.82703 2.93607 1.97987 2.6304 2.28555C2.32472 2.59123 2.17188 2.95835 2.17188 3.38693V3.85963C2.39247 3.72097 2.6304 3.61541 2.88565 3.54292C3.14091 3.47044 3.41035 3.4342 3.69397 3.4342ZM2.27587 5.87333L10.4914 7.94375C10.5985 7.96896 10.7072 7.96896 10.8175 7.94375C10.9278 7.91853 11.0302 7.87126 11.1248 7.80194L13.8192 5.54244C13.6805 5.34075 13.504 5.17531 13.2897 5.0461C13.0755 4.9169 12.836 4.8523 12.5712 4.8523H3.69397C3.35993 4.8523 3.06685 4.94526 2.81475 5.13119C2.56264 5.31712 2.38302 5.5645 2.27587 5.87333Z" fill="white"/>
</svg>
