<svg width="25" height="13" viewBox="0 0 25 13" fill="none" xmlns="http://www.w3.org/2000/svg">
<path d="M0.5625 12.2268V10.7143C0.5625 10.006 0.925 9.43514 1.65 9.00181C2.375 8.56847 3.325 8.35181 4.5 8.35181C4.75 8.35181 4.98125 8.35806 5.19375 8.37056C5.40625 8.38306 5.60417 8.40564 5.7875 8.43831C5.5625 8.78064 5.39583 9.13639 5.2875 9.50556C5.17917 9.87489 5.125 10.2602 5.125 10.6616V12.2268H0.5625ZM6.5625 12.2268V10.6606C6.5625 10.1464 6.70417 9.67056 6.9875 9.23306C7.27083 8.79556 7.67917 8.41431 8.2125 8.08931C8.74583 7.76431 9.37875 7.51847 10.1113 7.35181C10.8438 7.18514 11.638 7.10181 12.494 7.10181C13.3663 7.10181 14.1687 7.18514 14.9012 7.35181C15.6337 7.51847 16.2667 7.76431 16.8 8.08931C17.3333 8.41431 17.7396 8.79372 18.0188 9.22756C18.2979 9.66139 18.4375 10.1403 18.4375 10.6643V12.2268H6.5625ZM19.875 12.2268V10.6643C19.875 10.256 19.8229 9.86639 19.7188 9.49556C19.6146 9.12472 19.4583 8.77264 19.25 8.43931C19.4333 8.40597 19.6271 8.38306 19.8313 8.37056C20.0354 8.35806 20.2583 8.35181 20.5 8.35181C21.675 8.35181 22.625 8.56697 23.35 8.99731C24.075 9.42747 24.4375 9.99981 24.4375 10.7143V12.2268H19.875ZM8.5375 10.3518H16.4875C16.3375 9.96847 15.8792 9.64347 15.1125 9.37681C14.3458 9.11014 13.4771 8.97681 12.5063 8.97681C11.5354 8.97681 10.6667 9.11014 9.9 9.37681C9.13333 9.64347 8.67917 9.96847 8.5375 10.3518ZM4.4995 7.22681C3.9665 7.22681 3.51042 7.03697 3.13125 6.65731C2.75208 6.27764 2.5625 5.82131 2.5625 5.28831C2.5625 4.73897 2.75233 4.27889 3.132 3.90806C3.51167 3.53722 3.968 3.35181 4.501 3.35181C5.05033 3.35181 5.51042 3.53756 5.88125 3.90906C6.25208 4.28056 6.4375 4.74081 6.4375 5.28981C6.4375 5.82281 6.25175 6.27889 5.88025 6.65806C5.50875 7.03722 5.0485 7.22681 4.4995 7.22681ZM20.4995 7.22681C19.9665 7.22681 19.5104 7.03697 19.1313 6.65731C18.7521 6.27764 18.5625 5.82131 18.5625 5.28831C18.5625 4.73897 18.7523 4.27889 19.132 3.90806C19.5117 3.53722 19.968 3.35181 20.501 3.35181C21.0503 3.35181 21.5104 3.53756 21.8813 3.90906C22.2521 4.28056 22.4375 4.74081 22.4375 5.28981C22.4375 5.82281 22.2518 6.27889 21.8803 6.65806C21.5088 7.03722 21.0485 7.22681 20.4995 7.22681ZM12.494 6.22681C11.6813 6.22681 10.9896 5.94122 10.4187 5.37006C9.84792 4.79889 9.5625 4.10531 9.5625 3.28931C9.5625 2.46431 9.84808 1.76847 10.4192 1.20181C10.9904 0.63514 11.684 0.351807 12.5 0.351807C13.325 0.351807 14.0208 0.63514 14.5875 1.20181C15.1542 1.76847 15.4375 2.46631 15.4375 3.29531C15.4375 4.10797 15.1542 4.79972 14.5875 5.37056C14.0208 5.94139 13.323 6.22681 12.494 6.22681ZM12.5063 4.35181C12.8021 4.35181 13.0521 4.24764 13.2563 4.03931C13.4604 3.83097 13.5625 3.57889 13.5625 3.28306C13.5625 2.98722 13.4607 2.73722 13.257 2.53306C13.0533 2.32889 12.801 2.22681 12.5 2.22681C12.2083 2.22681 11.9583 2.32864 11.75 2.53231C11.5417 2.73597 11.4375 2.98831 11.4375 3.28931C11.4375 3.58097 11.5417 3.83097 11.75 4.03931C11.9583 4.24764 12.2104 4.35181 12.5063 4.35181Z" fill="white"/>
</svg>
