<svg width="20" height="20" viewBox="0 0 20 20" fill="none" xmlns="http://www.w3.org/2000/svg">
<path d="M13.3125 12.3518L14.075 9.6018C14.1333 9.41013 14.1271 9.22055 14.0562 9.03305C13.9854 8.84555 13.8666 8.69346 13.7 8.5768L11.35 6.9643C11.2166 6.87263 11.075 6.85388 10.925 6.90805C10.775 6.96221 10.6791 7.06846 10.6375 7.2268L9.87498 9.9768C9.81665 10.1685 9.8229 10.358 9.89373 10.5455C9.96457 10.733 10.0833 10.8851 10.25 11.0018L12.6 12.6143C12.7333 12.706 12.875 12.7247 13.025 12.6705C13.175 12.6164 13.2708 12.5101 13.3125 12.3518ZM2.34998 17.1268L1.39998 16.7018C0.889982 16.4881 0.543732 16.1225 0.361232 15.6048C0.178732 15.0873 0.204148 14.5738 0.437482 14.0643L2.34998 9.9268V17.1268ZM6.18748 19.1393C5.64432 19.1393 5.1794 18.943 4.79273 18.5503C4.4059 18.1578 4.21248 17.6916 4.21248 17.1518V11.1018L6.89998 18.5143C6.94165 18.631 6.98332 18.7414 7.02498 18.8455C7.06665 18.9497 7.12498 19.0476 7.19998 19.1393H6.18748ZM11.075 18.9518C10.5916 19.1268 10.1104 19.106 9.63123 18.8893C9.15207 18.6726 8.82498 18.3226 8.64998 17.8393L4.26248 5.7643C4.08748 5.28096 4.10973 4.80105 4.32923 4.32455C4.54873 3.84788 4.90148 3.52363 5.38748 3.3518L12.825 0.651798C13.3083 0.476798 13.7882 0.498048 14.2647 0.715548C14.7414 0.933048 15.0656 1.28263 15.2375 1.7643L19.6375 13.8393C19.8125 14.3226 19.7902 14.8025 19.5707 15.279C19.3512 15.7557 18.9985 16.08 18.5125 16.2518L11.075 18.9518ZM10.4125 17.1893L17.8625 14.4893L13.475 2.4143L6.03748 5.1143L10.4125 17.1893Z" fill="url(#paint0_linear_79_177)"/>
<path d="M13.3125 12.3518L14.075 9.6018C14.1333 9.41013 14.1271 9.22055 14.0562 9.03305C13.9854 8.84555 13.8666 8.69346 13.7 8.5768L11.35 6.9643C11.2166 6.87263 11.075 6.85388 10.925 6.90805C10.775 6.96221 10.6791 7.06846 10.6375 7.2268L9.87498 9.9768C9.81665 10.1685 9.8229 10.358 9.89373 10.5455C9.96457 10.733 10.0833 10.8851 10.25 11.0018L12.6 12.6143C12.7333 12.706 12.875 12.7247 13.025 12.6705C13.175 12.6164 13.2708 12.5101 13.3125 12.3518ZM2.34998 17.1268L1.39998 16.7018C0.889982 16.4881 0.543732 16.1225 0.361232 15.6048C0.178732 15.0873 0.204148 14.5738 0.437482 14.0643L2.34998 9.9268V17.1268ZM6.18748 19.1393C5.64432 19.1393 5.1794 18.943 4.79273 18.5503C4.4059 18.1578 4.21248 17.6916 4.21248 17.1518V11.1018L6.89998 18.5143C6.94165 18.631 6.98332 18.7414 7.02498 18.8455C7.06665 18.9497 7.12498 19.0476 7.19998 19.1393H6.18748ZM11.075 18.9518C10.5916 19.1268 10.1104 19.106 9.63123 18.8893C9.15207 18.6726 8.82498 18.3226 8.64998 17.8393L4.26248 5.7643C4.08748 5.28096 4.10973 4.80105 4.32923 4.32455C4.54873 3.84788 4.90148 3.52363 5.38748 3.3518L12.825 0.651798C13.3083 0.476798 13.7882 0.498048 14.2647 0.715548C14.7414 0.933048 15.0656 1.28263 15.2375 1.7643L19.6375 13.8393C19.8125 14.3226 19.7902 14.8025 19.5707 15.279C19.3512 15.7557 18.9985 16.08 18.5125 16.2518L11.075 18.9518ZM10.4125 17.1893L17.8625 14.4893L13.475 2.4143L6.03748 5.1143L10.4125 17.1893Z" fill="url(#paint1_linear_79_177)"/>
<path d="M13.3125 12.3518L14.075 9.6018C14.1333 9.41013 14.1271 9.22055 14.0562 9.03305C13.9854 8.84555 13.8666 8.69346 13.7 8.5768L11.35 6.9643C11.2166 6.87263 11.075 6.85388 10.925 6.90805C10.775 6.96221 10.6791 7.06846 10.6375 7.2268L9.87498 9.9768C9.81665 10.1685 9.8229 10.358 9.89373 10.5455C9.96457 10.733 10.0833 10.8851 10.25 11.0018L12.6 12.6143C12.7333 12.706 12.875 12.7247 13.025 12.6705C13.175 12.6164 13.2708 12.5101 13.3125 12.3518ZM2.34998 17.1268L1.39998 16.7018C0.889982 16.4881 0.543732 16.1225 0.361232 15.6048C0.178732 15.0873 0.204148 14.5738 0.437482 14.0643L2.34998 9.9268V17.1268ZM6.18748 19.1393C5.64432 19.1393 5.1794 18.943 4.79273 18.5503C4.4059 18.1578 4.21248 17.6916 4.21248 17.1518V11.1018L6.89998 18.5143C6.94165 18.631 6.98332 18.7414 7.02498 18.8455C7.06665 18.9497 7.12498 19.0476 7.19998 19.1393H6.18748ZM11.075 18.9518C10.5916 19.1268 10.1104 19.106 9.63123 18.8893C9.15207 18.6726 8.82498 18.3226 8.64998 17.8393L4.26248 5.7643C4.08748 5.28096 4.10973 4.80105 4.32923 4.32455C4.54873 3.84788 4.90148 3.52363 5.38748 3.3518L12.825 0.651798C13.3083 0.476798 13.7882 0.498048 14.2647 0.715548C14.7414 0.933048 15.0656 1.28263 15.2375 1.7643L19.6375 13.8393C19.8125 14.3226 19.7902 14.8025 19.5707 15.279C19.3512 15.7557 18.9985 16.08 18.5125 16.2518L11.075 18.9518ZM10.4125 17.1893L17.8625 14.4893L13.475 2.4143L6.03748 5.1143L10.4125 17.1893Z" fill="white"/>
<defs>
<linearGradient id="paint0_linear_79_177" x1="9.99751" y1="0.53476" x2="9.99751" y2="19.1393" gradientUnits="userSpaceOnUse">
<stop stop-color="#4112FF"/>
<stop offset="1" stop-color="#4D0099"/>
</linearGradient>
<linearGradient id="paint1_linear_79_177" x1="8.05088" y1="-0.091021" x2="22.5521" y2="6.36816" gradientUnits="userSpaceOnUse">
<stop stop-color="#6368DB"/>
<stop offset="1" stop-color="#3644BD"/>
<stop offset="1.0001" stop-color="#5C6299"/>
</linearGradient>
</defs>
</svg>
