<svg width="16" height="16" viewBox="0 0 16 16" fill="none" xmlns="http://www.w3.org/2000/svg">
<path d="M7.31025 3.3812C7.08979 3.3812 6.90132 3.53852 6.85898 3.75689L6.70526 4.55366C6.32749 4.69786 5.97819 4.89932 5.67146 5.1535L4.91455 4.89033C4.70605 4.81785 4.47665 4.90488 4.36619 5.09723L3.67219 6.31144C3.56219 6.50426 3.60223 6.74905 3.76838 6.89495L4.37517 7.42764C4.34362 7.62341 4.32304 7.82271 4.32304 8.02748C4.32304 8.23225 4.34362 8.43155 4.37517 8.62732L3.76838 9.16001C3.60223 9.3059 3.56219 9.5507 3.67219 9.74352L4.36619 10.9577C4.47619 11.1505 4.70605 11.2376 4.91455 11.1655L5.67146 10.9024C5.97809 11.1564 6.32766 11.3572 6.70526 11.5013L6.85898 12.2981C6.90132 12.5164 7.08979 12.6738 7.31025 12.6738H8.70003C8.9205 12.6738 9.10896 12.5164 9.15131 12.2981L9.30503 11.5013C9.68279 11.3571 10.0321 11.1556 10.3388 10.9015L11.0957 11.1646C11.3042 11.2371 11.5336 11.1505 11.6441 10.9577L12.3381 9.74261C12.4481 9.54979 12.4081 9.3059 12.2419 9.16001L11.6351 8.62732C11.6667 8.43155 11.6872 8.23225 11.6872 8.02748C11.6872 7.82271 11.6667 7.62341 11.6351 7.42764L12.2419 6.89495C12.4081 6.74905 12.4481 6.50426 12.3381 6.31144L11.6441 5.09723C11.5341 4.90441 11.3042 4.81741 11.0957 4.88942L10.3388 5.15259C10.0322 4.89858 9.68262 4.69779 9.30503 4.55366L9.15131 3.75689C9.10896 3.53852 8.9205 3.3812 8.70003 3.3812H7.31025ZM8.00514 6.16897C9.02186 6.16897 9.84619 7.00112 9.84619 8.02748C9.84619 9.05384 9.02186 9.88599 8.00514 9.88599C6.98842 9.88599 6.16409 9.05384 6.16409 8.02748C6.16409 7.00112 6.98842 6.16897 8.00514 6.16897Z" fill="black"/>
</svg>
