<svg width="20" height="16" viewBox="0 0 20 16" fill="none" xmlns="http://www.w3.org/2000/svg">
<path d="M4.47008 0.456665C2.17809 0.456665 0.320068 2.31469 0.320068 4.60667V11.3934C0.320068 13.6853 2.17809 15.5434 4.47008 15.5434H13.2062C15.0252 15.5434 16.5709 14.373 17.1314 12.7442H12.5017C11.0602 12.7442 9.89167 11.5757 9.89167 10.1342V5.95533C9.89167 4.51385 11.0602 3.34529 12.5017 3.34529H17.161C16.6272 1.67005 15.0584 0.456665 13.2062 0.456665H4.47008Z" fill="white"/>
<path fill-rule="evenodd" clip-rule="evenodd" d="M13.4675 4.36704C12.1577 4.36704 11.096 5.42877 11.096 6.73847V9.12302C11.096 10.4327 12.1577 11.4945 13.4675 11.4945H17.3084C18.6182 11.4945 19.6799 10.4327 19.6799 9.12302V6.73847C19.6799 5.42877 18.6182 4.36704 17.3084 4.36704H13.4675ZM14.0495 9.26916C14.7887 9.26916 15.388 8.66993 15.388 7.93074C15.388 7.19155 14.7887 6.59232 14.0495 6.59232C13.3103 6.59232 12.7111 7.19155 12.7111 7.93074C12.7111 8.66993 13.3103 9.26916 14.0495 9.26916Z" fill="white"/>
</svg>
